<svg width="28" height="28" viewBox="0 0 28 28" fill="none" xmlns="http://www.w3.org/2000/svg">
<g clip-path="url(#clip0_2687_2178)">
<path d="M9.94752 28.0177C9.94752 23.5084 9.94752 19.0373 9.94752 14.5203C8.95226 14.5203 7.98761 14.5203 7 14.5203C7 12.9891 7 11.5039 7 9.97272C7.13015 9.96506 7.2603 9.94975 7.39811 9.94975C8.11011 9.94975 8.82976 9.93444 9.54176 9.95741C9.85565 9.96506 9.96283 9.88085 9.95518 9.5593C9.93987 8.3956 9.93987 7.23956 9.94752 6.07586C9.95518 4.7667 10.3227 3.58004 11.2567 2.63071C12.1601 1.712 13.3161 1.21436 14.5717 1.13781C16.5928 1.02297 18.6217 1.03828 20.6505 1C20.6734 1 20.6964 1.02297 20.7423 1.04594C20.7423 2.58477 20.7423 4.13126 20.7423 5.71604C20.5969 5.72369 20.4591 5.73135 20.3289 5.73135C19.4102 5.73135 18.4915 5.73135 17.5728 5.73135C16.6464 5.739 16.1029 6.29023 16.1029 7.20128C16.1029 8.0664 16.1029 8.93917 16.1105 9.80429C16.1105 9.82725 16.1258 9.85022 16.1488 9.93444C17.6647 9.93444 19.1959 9.93444 20.8036 9.93444C20.6045 11.4886 20.4208 12.9738 20.2217 14.5127C18.836 14.5127 17.4809 14.5127 16.0876 14.5127C16.0876 19.045 16.0876 23.5313 16.0876 28.033C14.0281 28.0177 12.0223 28.0177 9.94752 28.0177Z" fill="#B0B0B0"/>
</g>
<defs>
<clipPath id="clip0_2687_2178">
<rect width="28" height="28" fill="white"/>
</clipPath>
</defs>
</svg>
