<svg width="28" height="28" viewBox="0 0 28 28" fill="none" xmlns="http://www.w3.org/2000/svg">
<path d="M27.5487 13.7844C27.5487 15.7176 27.5099 17.6564 27.5598 19.5897C27.6432 23.0118 25.4933 25.6561 22.7545 26.8338C21.6546 27.306 20.4991 27.556 19.3047 27.556C15.566 27.5616 11.8217 27.6115 8.08296 27.5393C5.26643 27.4838 2.94986 26.3061 1.28883 23.9839C0.416648 22.7618 0 21.3729 0 19.8675C0 15.8843 0 11.9067 0 7.92356C0 4.67371 1.58326 2.40159 4.39424 0.923881C5.61641 0.285021 6.94413 0.0128112 8.3274 0.00725591C11.955 0.00725591 15.5882 -0.0149653 19.2158 0.0183665C22.0323 0.0405877 24.3822 1.11832 26.1155 3.38488C27.0821 4.65149 27.5487 6.10698 27.5487 7.7069C27.5487 9.72903 27.5487 11.7567 27.5487 13.7844ZM2.04991 13.7844C2.04991 15.8232 2.04991 17.8564 2.04991 19.8952C2.04991 20.8063 2.26101 21.6618 2.73321 22.434C3.97204 24.4617 5.84418 25.4505 8.16629 25.4894C11.8939 25.545 15.6271 25.5116 19.3602 25.5005C20.2768 25.5005 21.1657 25.3117 21.9934 24.9172C24.2489 23.8395 25.5099 22.1229 25.4988 19.5453C25.4766 15.601 25.4933 11.6567 25.4933 7.71246C25.4933 6.59584 25.1766 5.57367 24.5155 4.67371C23.2378 2.94601 21.4712 2.09605 19.3602 2.07383C15.6382 2.02939 11.9161 2.05716 8.19407 2.06272C7.39966 2.06272 6.63303 2.22382 5.88862 2.50159C3.84427 3.26266 1.94436 5.19035 2.03324 8.02911C2.0999 9.95124 2.04991 11.8678 2.04991 13.7844Z" fill="#B0B0B0"/>
<path d="M13.805 19.6732C10.2218 19.6732 7.33308 16.8178 7.32752 13.2624C7.32197 9.76254 10.2329 6.896 13.7939 6.896C17.366 6.89045 20.2658 9.75143 20.2714 13.279C20.2714 16.8011 17.3771 19.6676 13.805 19.6732ZM13.805 17.6177C16.2438 17.6177 18.2215 15.6678 18.2159 13.2679C18.2104 10.8903 16.2327 8.94591 13.805 8.94591C11.3662 8.94591 9.37743 10.8847 9.37743 13.279C9.38298 15.6789 11.3662 17.6233 13.805 17.6177Z" fill="#B0B0B0"/>
<path d="M21.0213 4.95166C21.7713 4.95166 22.3824 5.59052 22.3824 6.37382C22.3768 7.15711 21.7602 7.79042 21.0102 7.78486C20.2713 7.77931 19.6658 7.146 19.6658 6.37937C19.6603 5.59607 20.2713 4.95166 21.0213 4.95166Z" fill="#B0B0B0"/>
</svg>
