<svg width="28" height="28" viewBox="0 0 28 28" fill="none" xmlns="http://www.w3.org/2000/svg">
<path d="M14.1318 0.0236263C15.701 0 17.2612 0.0140007 18.8196 0C18.914 1.78597 19.574 3.60519 20.9175 4.86788C22.2583 6.16207 24.1548 6.75448 26 6.95486V11.6529C24.2708 11.5978 22.5335 11.2478 20.9642 10.5233C20.2809 10.2223 19.6441 9.83464 19.021 9.43824C19.0129 12.8475 19.0354 16.2523 18.9985 19.6474C18.905 21.2785 18.352 22.9017 17.3772 24.2458C15.8089 26.4832 13.087 27.9419 10.2912 27.9875C8.57633 28.0829 6.86327 27.6278 5.40201 26.7895C2.98036 25.4 1.2763 22.8562 1.02811 20.1261C0.999334 19.5424 0.989442 18.9596 1.01372 18.39C1.22954 16.17 2.35809 14.0462 4.1098 12.6015C6.09533 10.9188 8.87667 10.1173 11.4809 10.5916C11.5052 12.3198 11.4341 14.0462 11.4341 15.7744C10.2444 15.4 8.8542 15.505 7.81467 16.2076C7.05572 16.6863 6.4793 17.4195 6.17896 18.2491C5.93076 18.8406 6.0018 19.4978 6.0162 20.1261C6.30125 22.0406 8.19325 23.6499 10.2129 23.4757C11.5519 23.4617 12.8351 22.7057 13.5329 21.5988C13.7587 21.2112 14.0113 20.8148 14.0248 20.3588C14.1426 18.2718 14.0959 16.1936 14.1102 14.1066C14.1201 9.40324 14.0959 4.713 14.1327 0.0245013L14.1318 0.0236263Z" fill="#B0B0B0"/>
</svg>
