<svg width="40" height="33" viewBox="0 0 40 33" fill="none" xmlns="http://www.w3.org/2000/svg">
<path d="M22.0417 24.6668V4.25016C22.0417 3.12258 21.1276 2.2085 20 2.2085H3.66667C2.53909 2.2085 1.625 3.12258 1.625 4.25016V24.6668C1.625 25.7944 2.53909 26.7085 3.66667 26.7085H5.70833M22.0417 24.6668C22.0417 25.7944 21.1276 26.7085 20 26.7085H13.875M22.0417 24.6668L22.0417 8.3335C22.0417 7.20591 22.9558 6.29183 24.0833 6.29183H29.3627C29.9041 6.29183 30.4234 6.50693 30.8063 6.88982L37.777 13.8605C38.1599 14.2434 38.375 14.7627 38.375 15.3042V24.6668C38.375 25.7944 37.4609 26.7085 36.3333 26.7085H34.2917M22.0417 24.6668C22.0417 25.7944 22.9558 26.7085 24.0833 26.7085H26.125M5.70833 26.7085C5.70833 28.9637 7.5365 30.7918 9.79167 30.7918C12.0468 30.7918 13.875 28.9637 13.875 26.7085M5.70833 26.7085C5.70833 24.4533 7.5365 22.6252 9.79167 22.6252C12.0468 22.6252 13.875 24.4533 13.875 26.7085M26.125 26.7085C26.125 28.9637 27.9532 30.7918 30.2083 30.7918C32.4635 30.7918 34.2917 28.9637 34.2917 26.7085M26.125 26.7085C26.125 24.4533 27.9532 22.6252 30.2083 22.6252C32.4635 22.6252 34.2917 24.4533 34.2917 26.7085" stroke="#DDDDDD" stroke-width="2.5"/>
</svg>
