<svg width="47" height="47" viewBox="0 0 47 47" fill="none" xmlns="http://www.w3.org/2000/svg">
<path fill-rule="evenodd" clip-rule="evenodd" d="M2.10493 0C0.942421 0 0 0.941623 0 2.10315C0 3.26468 0.942421 4.20631 2.10493 4.20631H4.6713L12.1738 34.1907C9.96213 35.1723 8.41972 37.3861 8.41972 39.9599C8.41972 43.4446 11.247 46.2694 14.7345 46.2694C18.2221 46.2694 21.0493 43.4446 21.0493 39.9599C21.0493 39.2225 20.9226 38.5146 20.69 37.8567H29.8283C29.5957 38.5146 29.469 39.2225 29.469 39.9599C29.469 43.4446 32.2962 46.2694 35.7838 46.2694C39.2715 46.2694 42.0986 43.4446 42.0986 39.9599C42.0986 36.4752 39.2715 33.6504 35.7838 33.6504H16.378L15.3255 29.4441H35.7838C40.1288 29.4441 42.7341 26.7014 44.1798 23.6729C45.5926 20.7133 46.0843 17.1763 46.2559 14.6036C46.4946 11.0208 43.5306 8.41261 40.2486 8.41261H10.0632L8.75548 3.18613C8.28694 1.31361 6.60308 0 4.6713 0H2.10493ZM35.7838 25.2378H14.2731L11.1157 12.6189H40.2486C41.4128 12.6189 42.1119 13.4744 42.0553 14.3241C41.8953 16.7247 41.4473 19.6262 40.3801 21.8621C39.3458 24.0287 37.9311 25.2378 35.7838 25.2378ZM35.7838 42.05C34.6284 42.05 35.7838 43.2044 35.7838 42.05C34.6284 42.05 35.7838 40.8956 35.7838 42.05C36.9392 42.05 35.7838 40.8956 35.7838 42.05C36.9392 42.05 35.7838 43.2044 35.7838 42.05ZM14.7345 42.05C13.5792 42.05 14.7345 43.2044 14.7345 42.05C14.7345 43.2044 15.8899 42.05 14.7345 42.05C15.8899 42.05 14.7345 40.8956 14.7345 42.05C14.7345 40.8956 13.5792 42.05 14.7345 42.05Z" fill="#303030"/>
<circle cx="14.6254" cy="41.5907" r="1.49256" fill="#303030"/>
<circle cx="35.5214" cy="41.5907" r="1.49256" fill="#303030"/>
</svg>
