<svg width="50" height="50" viewBox="0 0 50 50" fill="none" xmlns="http://www.w3.org/2000/svg">
<path d="M37.4998 4.1665L38.7869 6.74063C39.34 7.84684 39.6166 8.39994 39.986 8.87924C40.3138 9.30455 40.6951 9.68583 41.1204 10.0137C41.5997 10.3831 42.1528 10.6597 43.259 11.2128L45.8332 12.4998L43.259 13.7869C42.1528 14.34 41.5997 14.6166 41.1204 14.986C40.6951 15.3138 40.3138 15.6951 39.986 16.1204C39.6166 16.5997 39.34 17.1528 38.7869 18.259L37.4998 20.8332L36.2128 18.259C35.6597 17.1528 35.3831 16.5997 35.0137 16.1204C34.6858 15.6951 34.3045 15.3138 33.8792 14.986C33.3999 14.6166 32.8468 14.34 31.7406 13.7869L29.1665 12.4998L31.7406 11.2128C32.8468 10.6597 33.3999 10.3831 33.8792 10.0137C34.3045 9.68583 34.6858 9.30454 35.0137 8.87924C35.3831 8.39994 35.6597 7.84684 36.2128 6.74063L37.4998 4.1665Z" stroke="#303030" stroke-width="4" stroke-linecap="round" stroke-linejoin="round"/>
<path d="M43.7498 27.8942C41.0185 32.6853 35.8634 35.9155 29.9539 35.9155C21.1896 35.9155 14.0847 28.8106 14.0847 20.0464C14.0847 14.1364 17.3154 8.98096 22.1071 6.24984C12.0411 7.20425 4.1665 15.6809 4.1665 25.9968C4.1665 36.9521 13.0476 45.8332 24.003 45.8332C34.3183 45.8332 42.7947 37.9595 43.7498 27.8942Z" stroke="#303030" stroke-width="4" stroke-linecap="round" stroke-linejoin="round"/>
</svg>
