<svg width="51" height="50" viewBox="0 0 51 50" fill="none" xmlns="http://www.w3.org/2000/svg">
<path d="M50.2224 42.3127C49.0501 37.242 46.2879 32.6592 42.3241 29.2085C40.3474 31.7838 37.788 33.8734 34.8477 35.3123C31.9074 36.7512 28.6666 37.5002 25.3809 37.5002C22.0951 37.5002 18.8543 36.7512 15.914 35.3123C12.9737 33.8734 10.4143 31.7838 8.43765 29.2085C4.47381 32.6592 1.71162 37.242 0.539317 42.3127C0.327446 43.2355 0.328049 44.1932 0.541083 45.1158C0.754117 46.0384 1.17422 46.9028 1.77078 47.646C2.36831 48.3815 3.12733 48.9752 3.99125 49.3828C4.85517 49.7904 5.80171 50.0015 6.76032 50.0002H44.0014C44.96 50.0015 45.9066 49.7904 46.7705 49.3828C47.6344 48.9752 48.3934 48.3815 48.9909 47.646C49.5875 46.9028 50.0076 46.0384 50.2206 45.1158C50.4337 44.1932 50.4343 43.2355 50.2224 42.3127Z" fill="#B0B0B0"/>
<path d="M25.3802 33.3333C34.7611 33.3333 42.3659 25.8714 42.3659 16.6667C42.3659 7.46192 34.7611 0 25.3802 0C15.9993 0 8.39453 7.46192 8.39453 16.6667C8.39453 25.8714 15.9993 33.3333 25.3802 33.3333Z" fill="#B0B0B0"/>
</svg>
