<svg width="24" height="24" viewBox="0 0 24 24" fill="none" xmlns="http://www.w3.org/2000/svg">
<path d="M23.4142 20.586L18.3372 15.509C19.3862 13.928 20.0002 12.035 20.0002 10C20.0002 4.486 15.5142 0 10.0002 0C4.48624 0 0.000244141 4.486 0.000244141 10C0.000244141 15.514 4.48624 20 10.0002 20C12.0352 20 13.9282 19.386 15.5092 18.337L20.5862 23.414C21.3662 24.195 22.6342 24.195 23.4142 23.414C24.1952 22.633 24.1952 21.367 23.4142 20.586ZM3.00024 10C3.00024 6.14 6.14024 3 10.0002 3C13.8602 3 17.0002 6.14 17.0002 10C17.0002 13.86 13.8602 17 10.0002 17C6.14024 17 3.00024 13.86 3.00024 10Z" fill="#B0B0B0"/>
</svg>
