<svg width="30" height="30" viewBox="0 0 30 30" fill="none" xmlns="http://www.w3.org/2000/svg">
<path d="M29.5838 3.22964L26.9001 0.433909C26.623 0.14485 26.2586 0 25.8949 0C25.5311 0 25.1674 0.144209 24.8903 0.433268L22.7435 2.66627L27.4371 7.554L29.5838 5.32164C30.1387 4.74352 30.1387 3.80584 29.5838 3.22964Z" fill="#1C1C1C"/>
<path d="M8.80811 17.1763L13.5023 22.0646L26.4327 8.60126L21.7385 3.71289L8.80811 17.1763Z" fill="#1C1C1C"/>
<path d="M7.79509 18.2222L6.79297 24.152L12.4892 23.1099L7.79509 18.2222Z" fill="#1C1C1C"/>
<path d="M20.7716 26.7947H3.07271V8.33209H15.5632L18.6415 5.12744H1.98703C0.893978 5.12744 0 6.05999 0 7.20021V27.9272C0 29.0674 0.893978 30 1.98703 30H21.8567C22.9498 30 23.8437 29.0674 23.8437 27.9272V13.1083L20.7716 16.3072V26.7947Z" fill="#1C1C1C"/>
</svg>
