<svg width="40" height="33" viewBox="0 0 40 33" fill="none" xmlns="http://www.w3.org/2000/svg">
<path d="M22.0417 24.6667V4.25004C22.0417 3.12246 21.1276 2.20837 20 2.20837H3.66667C2.53909 2.20837 1.625 3.12246 1.625 4.25004V24.6667C1.625 25.7943 2.53909 26.7084 3.66667 26.7084H5.70833M22.0417 24.6667C22.0417 25.7943 21.1276 26.7084 20 26.7084H13.875M22.0417 24.6667L22.0417 8.33337C22.0417 7.20579 22.9558 6.29171 24.0833 6.29171H29.3627C29.9041 6.29171 30.4234 6.50681 30.8063 6.8897L37.777 13.8604C38.1599 14.2433 38.375 14.7626 38.375 15.3041V24.6667C38.375 25.7943 37.4609 26.7084 36.3333 26.7084H34.2917M22.0417 24.6667C22.0417 25.7943 22.9558 26.7084 24.0833 26.7084H26.125M5.70833 26.7084C5.70833 28.9635 7.5365 30.7917 9.79167 30.7917C12.0468 30.7917 13.875 28.9635 13.875 26.7084M5.70833 26.7084C5.70833 24.4532 7.5365 22.625 9.79167 22.625C12.0468 22.625 13.875 24.4532 13.875 26.7084M26.125 26.7084C26.125 28.9635 27.9532 30.7917 30.2083 30.7917C32.4635 30.7917 34.2917 28.9635 34.2917 26.7084M26.125 26.7084C26.125 24.4532 27.9532 22.625 30.2083 22.625C32.4635 22.625 34.2917 24.4532 34.2917 26.7084" stroke="#242424" stroke-width="2.5"/>
</svg>
